<svg width="236" height="289" viewBox="0 0 236 289" fill="none" xmlns="http://www.w3.org/2000/svg">
<path d="M0.252372 12.2697L12.4156 24.4329L24.5789 12.2697L12.4156 0.106376L0.252372 12.2697ZM235.253 12.2697L223.09 0.106376L210.927 12.2697L223.09 24.4329L235.253 12.2697ZM12.4156 14.3764H223.09V10.1629H12.4156V14.3764Z" fill="#6A8D92"/>
<path d="M117.753 12.2697V189.236" stroke="#6A8D92" stroke-width="4.21348"/>
<path d="M18.0337 288.549L41.5313 282.253L24.3299 265.051L18.0337 288.549ZM32.9306 276.631L118.836 190.726L115.857 187.746L29.9512 273.652L32.9306 276.631Z" fill="#6A8D92"/>
<path d="M217.066 288.549L210.769 265.051L193.568 282.253L217.066 288.549ZM116.263 190.726L202.169 276.631L205.148 273.652L119.242 187.746L116.263 190.726Z" fill="#6A8D92"/>
</svg>
