<?xml version="1.0" encoding="UTF-8" standalone="no"?>
<!DOCTYPE svg PUBLIC "-//W3C//DTD SVG 1.1//EN" "http://www.w3.org/Graphics/SVG/1.1/DTD/svg11.dtd">
<svg width="100%" height="100%" viewBox="0 0 3000 3000" version="1.1" xmlns="http://www.w3.org/2000/svg" xmlns:xlink="http://www.w3.org/1999/xlink" xml:space="preserve" xmlns:serif="http://www.serif.com/" style="fill-rule:evenodd;clip-rule:evenodd;stroke-linecap:round;stroke-linejoin:round;stroke-miterlimit:1.5;">
    <g transform="matrix(1,0,0,1,33.0007,8.86818)">
        <path d="M2354.31,1554.12C2352.09,1550.48 2350.84,1546.35 2350.84,1541.97C2350.84,1527.36 2364.75,1515.49 2381.88,1515.49C2399.01,1515.49 2412.92,1527.36 2412.92,1541.97C2412.92,1556.58 2399.01,1568.44 2381.88,1568.44C2379.13,1568.44 2207.67,1572.82 2163.16,1419.62C2156.4,1420.13 2149.49,1423.74 2142.49,1429.32C2133.3,1369.98 2146.21,1317.23 2189.32,1269.74C2182.74,1266.81 2173.73,1267.2 2163.16,1269.74C2246.16,1175.07 2284.18,1198.21 2332.79,1157.5C2318.33,1148.9 2300.12,1145.3 2280.15,1144.04C2280.15,1144.04 2490.4,1056.25 2403.24,998.359C2305.51,933.445 2249.02,1083.5 2217.61,1171.43C2156.9,1131.76 2180.08,1038.76 2227.76,990.103C2268.08,948.946 2273.12,863.591 2227.76,857.092C2182.39,850.592 2171.38,893.483 2206.41,929.569C2136.27,931.021 2134.41,820.919 2222.94,818.765C2311.47,816.612 2322.49,906.949 2245.51,1008.26C2328.05,953.402 2374.27,884.819 2349.61,789.46C2359.13,798.208 2369.65,805.069 2382.25,807.997C2384.15,749.809 2340.39,717.384 2274.2,701.724C2286.74,697.52 2298.2,691.545 2307.88,682.643C2196.28,661.263 2178.62,700.088 2222.94,778.625C2122.9,743.85 2130.07,696.641 2222.94,644.487C2216.26,636.095 2205.61,629.62 2193.66,623.771C2193.66,623.771 2246.78,616.268 2274.2,615.564C2365.5,613.222 2436.92,731.064 2441.46,789.46C2445.92,846.906 2420.12,905.002 2382.25,948.711C2445.66,965.13 2491.07,988.945 2513.31,1034.54C2494.76,1030.31 2476.33,1027.84 2458.29,1031.28C2462.26,1077.78 2449.38,1125.88 2421.36,1163.71C2419.22,1152.73 2415.83,1142.48 2409.49,1133.92C2409.49,1133.92 2300.17,1191.38 2254.2,1238.01C2205.67,1287.24 2205.61,1288.21 2201.63,1388.79C2197.79,1485.97 2248.17,1549.01 2354.31,1554.12Z" style="fill:rgb(13,59,102);"/>
        <path d="M2399.51,1174.97C2246.92,1265.31 2167.67,1394.92 2289.33,1507.51C2269.36,1459.49 2279.59,1428.17 2318.41,1412.66C2299.75,1382 2302.76,1359.59 2335.21,1348.37C2321.22,1327.89 2345.65,1325.43 2374.39,1324.99C2354.43,1293.14 2363.35,1284.56 2394.92,1284.22C2373.98,1258.18 2382.55,1238.94 2421.32,1225.62C2397.77,1220.23 2399.71,1197.9 2399.51,1174.97Z" style="fill:rgb(13,59,102);"/>
        <path d="M2159.93,1474.85C2161.92,1499.66 2162.67,1524.25 2159.93,1548.26C2130.3,1562.05 2130.66,1577.88 2159.93,1596.47C2162.22,1621.53 2162.07,1649.67 2159.93,1680.31C2176.93,1639.53 2201.02,1604.52 2235.75,1578.16C2204.12,1550.31 2180.53,1514.13 2159.93,1474.85Z" style="fill:rgb(13,59,102);"/>
        <path d="M2349.78,1661.22C2285.21,1553.59 2225.21,1732.77 2160.45,1914.89C2101.52,2062.05 1972.83,2153.58 1774.99,2178.81C1934.25,2116.08 2040.97,2029.44 2079.18,1928.53C2086.39,1941.89 2094.09,1951.46 2102.26,1957.55C2134.73,1888.45 2135.58,1801.39 2139.55,1722.04C2151.78,1736.74 2164.28,1749.03 2177.6,1754.12C2188.78,1689.53 2202.54,1640.74 2232.17,1606.33C2233.9,1617.69 2235.27,1628.59 2240.3,1632.73C2295.59,1562.38 2364.94,1594.09 2364.94,1686.39C2364.94,1701.92 2352.63,1714.53 2337.47,1714.53C2322.31,1714.53 2310,1701.92 2310,1686.39C2310,1670.86 2322.31,1658.25 2337.47,1658.25C2341.89,1658.25 2346.07,1659.32 2349.78,1661.22Z" style="fill:rgb(13,59,102);"/>
        <path d="M2344.67,1775.28C2387.63,1731.76 2430.66,1683.27 2467.67,1635.37C2463.86,1666.61 2458.99,1699.64 2444.44,1724.81C2451.15,1731.83 2460.7,1736.67 2473.59,1738.94C2434.36,1765.27 2390.31,1773.3 2344.67,1775.28Z" style="fill:rgb(13,59,102);"/>
        <path d="M2256.83,2030C2232.95,2093.47 2143.95,2067.24 2165,1996.01C2183.46,1933.54 2276.99,1923 2264.19,1799.01C2284.1,1809.23 2293.06,1824.09 2302.49,1845.99C2352.87,1809.59 2402.37,1798.63 2454.08,1799.01C2535.82,1799.6 2593.74,1739.02 2593.74,1739.02C2585.67,1787.7 2559.28,1829.23 2511.02,1862.22C2521.54,1864.72 2533.52,1864.61 2546.78,1862.22C2512.83,1904.39 2447.07,1927.68 2361.11,1936.92C2381.68,1956.61 2413.66,1966.44 2454.08,1969C2392.12,2014.42 2318.67,1976.56 2276.41,1974.71C2240.7,1973.15 2196.72,1981.64 2189.85,2020.13C2182.97,2058.61 2224.01,2061.38 2256.83,2030Z" style="fill:rgb(13,59,102);"/>
        <path d="M2364.94,2062.1C2493.77,2066.26 2568.24,1978.59 2473.59,1994.13C2470.86,1956.84 2533.62,1924.11 2555.13,2016.53C2585.9,2008.13 2612.35,1988.78 2641.43,1968.56C2594.88,2057.79 2495.67,2082.95 2364.94,2062.1Z" style="fill:rgb(13,59,102);"/>
        <path d="M1806.31,2178.81C2034.66,2195.9 2087.84,2085.7 2188.47,2100.75C2271.8,2113.22 2352.75,2100.75 2352.75,2100.75C2351.86,2115.61 2354.89,2129.7 2364.94,2142.44C2389.11,2141.42 2408.31,2133.68 2424.43,2121.78C2421.12,2138.7 2414.99,2159.57 2424.43,2170.37C2451.32,2172.73 2473.63,2161.2 2493.55,2142.44C2493.55,2142.44 2478.56,2229.5 2398.55,2205.62C2075.24,2109.14 2000.63,2262.68 1806.31,2178.81Z" style="fill:rgb(13,59,102);"/>
        <g transform="matrix(-0.957852,0.287261,0.287261,0.957852,2800.39,-318.901)">
            <path d="M1244.95,783.765C1171.73,747.649 1124.38,700.267 1155.51,636.801C1129.59,619.363 1109.84,629.541 1095.38,671.048C967.331,568.634 784.953,670.543 940.203,777.853C923.504,758.066 919.374,726.281 928.077,708.718L962.63,722.785C962.63,722.785 958.221,695.5 960.487,679.221C998.731,666.912 1044.89,679.655 1086.2,702.664L1049.53,744.557L1118.01,744.275C1160.14,768.362 1202.44,782.29 1244.95,783.765Z" style="fill:rgb(13,59,102);"/>
        </g>
    </g>
    <g transform="matrix(-1,0,0,1,2966.08,8.86818)">
        <path d="M2354.31,1554.12C2352.09,1550.48 2350.84,1546.35 2350.84,1541.97C2350.84,1527.36 2364.75,1515.49 2381.88,1515.49C2399.01,1515.49 2412.92,1527.36 2412.92,1541.97C2412.92,1556.58 2399.01,1568.44 2381.88,1568.44C2379.13,1568.44 2207.67,1572.82 2163.16,1419.62C2156.4,1420.13 2149.49,1423.74 2142.49,1429.32C2133.3,1369.98 2146.21,1317.23 2189.32,1269.74C2182.74,1266.81 2173.73,1267.2 2163.16,1269.74C2246.16,1175.07 2284.18,1198.21 2332.79,1157.5C2318.33,1148.9 2300.12,1145.3 2280.15,1144.04C2280.15,1144.04 2490.4,1056.25 2403.24,998.359C2305.51,933.445 2249.02,1083.5 2217.61,1171.43C2156.9,1131.76 2180.08,1038.76 2227.76,990.103C2268.08,948.946 2273.12,863.591 2227.76,857.092C2182.39,850.592 2171.38,893.483 2206.41,929.569C2136.27,931.021 2134.41,820.919 2222.94,818.765C2311.47,816.612 2322.49,906.949 2245.51,1008.26C2328.05,953.402 2374.27,884.819 2349.61,789.46C2359.13,798.208 2369.65,805.069 2382.25,807.997C2384.15,749.809 2340.39,717.384 2274.2,701.724C2286.74,697.52 2298.2,691.545 2307.88,682.643C2196.28,661.263 2178.62,700.088 2222.94,778.625C2122.9,743.85 2130.07,696.641 2222.94,644.487C2216.26,636.095 2205.61,629.62 2193.66,623.771C2193.66,623.771 2246.78,616.268 2274.2,615.564C2365.5,613.222 2436.92,731.064 2441.46,789.46C2445.92,846.906 2420.12,905.002 2382.25,948.711C2445.66,965.13 2491.07,988.945 2513.31,1034.54C2494.76,1030.31 2476.33,1027.84 2458.29,1031.28C2462.26,1077.78 2449.38,1125.88 2421.36,1163.71C2419.22,1152.73 2415.83,1142.48 2409.49,1133.92C2409.49,1133.92 2300.17,1191.38 2254.2,1238.01C2205.67,1287.24 2205.61,1288.21 2201.63,1388.79C2197.79,1485.97 2248.17,1549.01 2354.31,1554.12Z" style="fill:rgb(13,59,102);"/>
        <path d="M2399.51,1174.97C2246.92,1265.31 2167.67,1394.92 2289.33,1507.51C2269.36,1459.49 2279.59,1428.17 2318.41,1412.66C2299.75,1382 2302.76,1359.59 2335.21,1348.37C2321.22,1327.89 2345.65,1325.43 2374.39,1324.99C2354.43,1293.14 2363.35,1284.56 2394.92,1284.22C2373.98,1258.18 2382.55,1238.94 2421.32,1225.62C2397.77,1220.23 2399.71,1197.9 2399.51,1174.97Z" style="fill:rgb(13,59,102);"/>
        <path d="M2159.93,1474.85C2161.92,1499.66 2162.67,1524.25 2159.93,1548.26C2130.3,1562.05 2130.66,1577.88 2159.93,1596.47C2162.22,1621.53 2162.07,1649.67 2159.93,1680.31C2176.93,1639.53 2201.02,1604.52 2235.75,1578.16C2204.12,1550.31 2180.53,1514.13 2159.93,1474.85Z" style="fill:rgb(13,59,102);"/>
        <path d="M2349.78,1661.22C2285.21,1553.59 2225.21,1732.77 2160.45,1914.89C2101.52,2062.05 1972.83,2153.58 1774.99,2178.81C1934.25,2116.08 2040.97,2029.44 2079.18,1928.53C2086.39,1941.89 2094.09,1951.46 2102.26,1957.55C2134.73,1888.45 2135.58,1801.39 2139.55,1722.04C2151.78,1736.74 2164.28,1749.03 2177.6,1754.12C2188.78,1689.53 2202.54,1640.74 2232.17,1606.33C2233.9,1617.69 2235.27,1628.59 2240.3,1632.73C2295.59,1562.38 2364.94,1594.09 2364.94,1686.39C2364.94,1701.92 2352.63,1714.53 2337.47,1714.53C2322.31,1714.53 2310,1701.92 2310,1686.39C2310,1670.86 2322.31,1658.25 2337.47,1658.25C2341.89,1658.25 2346.07,1659.32 2349.78,1661.22Z" style="fill:rgb(13,59,102);"/>
        <path d="M2344.67,1775.28C2387.63,1731.76 2430.66,1683.27 2467.67,1635.37C2463.86,1666.61 2458.99,1699.64 2444.44,1724.81C2451.15,1731.83 2460.7,1736.67 2473.59,1738.94C2434.36,1765.27 2390.31,1773.3 2344.67,1775.28Z" style="fill:rgb(13,59,102);"/>
        <path d="M2256.83,2030C2232.95,2093.47 2143.95,2067.24 2165,1996.01C2183.46,1933.54 2276.99,1923 2264.19,1799.01C2284.1,1809.23 2293.06,1824.09 2302.49,1845.99C2352.87,1809.59 2402.37,1798.63 2454.08,1799.01C2535.82,1799.6 2593.74,1739.02 2593.74,1739.02C2585.67,1787.7 2559.28,1829.23 2511.02,1862.22C2521.54,1864.72 2533.52,1864.61 2546.78,1862.22C2512.83,1904.39 2447.07,1927.68 2361.11,1936.92C2381.68,1956.61 2413.66,1966.44 2454.08,1969C2392.12,2014.42 2318.67,1976.56 2276.41,1974.71C2240.7,1973.15 2196.72,1981.64 2189.85,2020.13C2182.97,2058.61 2224.01,2061.38 2256.83,2030Z" style="fill:rgb(13,59,102);"/>
        <path d="M2364.94,2062.1C2493.77,2066.26 2568.24,1978.59 2473.59,1994.13C2470.86,1956.84 2533.62,1924.11 2555.13,2016.53C2585.9,2008.13 2612.35,1988.78 2641.43,1968.56C2594.88,2057.79 2495.67,2082.95 2364.94,2062.1Z" style="fill:rgb(13,59,102);"/>
        <path d="M1806.31,2178.81C2034.66,2195.9 2087.84,2085.7 2188.47,2100.75C2271.8,2113.22 2352.75,2100.75 2352.75,2100.75C2351.86,2115.61 2354.89,2129.7 2364.94,2142.44C2389.11,2141.42 2408.31,2133.68 2424.43,2121.78C2421.12,2138.7 2414.99,2159.57 2424.43,2170.37C2451.32,2172.73 2473.63,2161.2 2493.55,2142.44C2493.55,2142.44 2478.56,2229.5 2398.55,2205.62C2075.24,2109.14 2000.63,2262.68 1806.31,2178.81Z" style="fill:rgb(13,59,102);"/>
        <g transform="matrix(-0.957852,0.287261,0.287261,0.957852,2800.39,-318.901)">
            <path d="M1244.95,783.765C1171.73,747.649 1124.38,700.267 1155.51,636.801C1129.59,619.363 1109.84,629.541 1095.38,671.048C967.331,568.634 784.953,670.543 940.203,777.853C923.504,758.066 919.374,726.281 928.077,708.718L962.63,722.785C962.63,722.785 958.221,695.5 960.487,679.221C998.731,666.912 1044.89,679.655 1086.2,702.664L1049.53,744.557L1118.01,744.275C1160.14,768.362 1202.44,782.29 1244.95,783.765Z" style="fill:rgb(13,59,102);"/>
        </g>
    </g>
    <g transform="matrix(1.10445,0,0,1.10445,-156.67,-167.466)">
        <path d="M2044.23,905.048L2044.23,1666.79C2038.49,2200.67 1636.79,1933.23 1500,2176.93C1363.21,1933.23 961.515,2200.67 955.774,1666.79L955.774,905.048L2044.23,905.048Z" style="fill:rgb(13,59,102);"/>
    </g>
    <g transform="matrix(1.06059,0,0,1.06059,-90.8878,-99.8869)">
        <path d="M2044.23,905.048L2044.23,1666.79C2038.49,2200.67 1636.79,1933.23 1500,2176.93C1363.21,1933.23 961.515,2200.67 955.774,1666.79L955.774,905.048L2044.23,905.048ZM2032.15,917.122C2032.15,917.122 1086.04,917.122 967.848,917.122C967.848,917.122 967.848,1666.72 967.848,1666.72C969.527,1822.02 1004.75,1907.71 1058.23,1957.52C1111.67,2007.29 1182.56,2020.95 1253.18,2033.96C1347.91,2051.42 1441.99,2067.94 1500,2153.92C1558.02,2067.94 1652.09,2051.42 1746.82,2033.96C1817.44,2020.95 1888.33,2007.29 1941.77,1957.52C1995.25,1907.71 2030.47,1822.02 2032.15,1666.72L2032.15,917.122Z" style="fill:rgb(250,240,202);"/>
    </g>
    <g transform="matrix(0.599656,0,0,0.665079,534.636,783.148)">
        <path d="M764.24,539.597C764.24,539.597 910.482,417.455 963.038,373.56C967.643,369.714 973.894,367.897 980.123,368.593C986.351,369.29 991.921,372.429 995.344,377.172C995.712,377.681 996.052,378.152 996.358,378.576C997.376,379.989 997.47,381.787 996.603,383.28C951.19,461.601 972.171,524.097 1116.62,714.514C1116.62,714.514 1437.74,454.318 1506.31,398.757C1514.43,392.176 1525.96,390.27 1536.15,393.829C1663.54,438.415 1700.88,539.958 1701.68,693.695C1701.68,693.695 2019.17,438.361 2085.67,384.874C2092.78,379.156 2103.38,378.757 2110.99,383.92C2232.23,466.904 2303.93,569.582 2442.47,549.795C2447.45,549.07 2452.42,551.179 2454.97,555.105C2455.02,555.165 2455.07,555.231 2455.11,555.298C2459.15,561.508 2457.01,569.485 2450.28,573.352C2410.22,596.81 2283.36,676.184 2266.09,749.967C2235.76,879.478 2260.06,1106.07 2280.4,1343.52C2313.15,1381.65 2408.1,1345.05 2440.02,1331.22C2446.03,1328.55 2453.31,1330.49 2456.75,1335.67C2456.82,1335.76 2456.88,1335.84 2456.93,1335.93C2460.6,1341.44 2458.74,1348.57 2452.74,1352.04C2392.08,1387.1 2093.12,1559.88 2025.79,1598.8C2022.31,1600.81 2018.05,1601.43 2014.04,1600.51C2010.02,1599.58 2006.62,1597.19 2004.63,1593.92C2004.6,1593.87 2004.57,1593.82 2004.54,1593.77C2002.83,1590.94 2003.26,1587.44 2005.62,1585.02C2022.94,1567 2091.63,1492.48 2094.93,1441.84C2102.72,1322.06 2081.84,972.5 2097.61,850.656C2103.08,808.407 2145.27,775.926 2216.4,714.758C2116.05,609.409 1982.15,522.998 1913.77,574.418C1707.07,729.847 1701.86,735.84 1701.86,735.84L1703.16,1500.04L1499.38,1598C1499.38,1598 1499.71,1573 1498.94,705.657C1498.83,584.039 1274.15,610.448 1137.65,756.541C1134.84,933.518 1059.86,1115.17 939.966,1246.42C1023.56,1278.67 1101.64,1318.56 1159.68,1383.28C1159.68,1383.28 1236.88,1295.45 1264.97,1263.49C1270.54,1257.15 1280.75,1256.05 1287.81,1261.03C1287.81,1261.03 1287.81,1261.03 1287.82,1261.03C1291.38,1263.55 1293.64,1267.26 1294.08,1271.32C1294.52,1275.38 1293.1,1279.42 1290.14,1282.5C1197.13,1380.39 1120.6,1496.96 1041.92,1611.38C965.49,1519.99 873.407,1465.62 760.917,1447.21C1004.88,1178.28 1047.98,876.483 764.24,539.597Z" style="fill:rgb(250,240,202);stroke:rgb(250,240,202);stroke-width:0.79px;"/>
    </g>
    <g id="nom" transform="matrix(1,0,0,1,0,34.0269)">
        <path d="M659.084,2236.83L1254.8,2236.83" style="fill:none;stroke:rgb(13,59,102);stroke-width:14.33px;stroke-linecap:square;"/>
        <g transform="matrix(1,0,0,1,1060.17,0)">
            <path d="M659.084,2236.83L1254.8,2236.83" style="fill:none;stroke:rgb(13,59,102);stroke-width:14.33px;stroke-linecap:square;"/>
        </g>
        <g transform="matrix(0.529455,0,0,1,445.238,371.49)">
            <path d="M659.084,2236.83L1254.8,2236.83" style="fill:none;stroke:rgb(13,59,102);stroke-width:17.91px;stroke-linecap:square;"/>
        </g>
        <g transform="matrix(0.529455,0,0,1,1505.41,371.49)">
            <path d="M659.084,2236.83L1254.8,2236.83" style="fill:none;stroke:rgb(13,59,102);stroke-width:17.91px;stroke-linecap:square;"/>
        </g>
        <g transform="matrix(1,0,0,1,764.834,0.321536)">
            <g transform="matrix(315.071,0,0,315.071,1823.3,2534.42)">
            </g>
            <text x="-358.507px" y="2534.42px" style="font-family:'Baskerville', serif;font-size:315.071px;fill:rgb(13,59,102);">MAR<tspan x="353.019px 579.477px " y="2534.42px 2534.42px ">CH</tspan>ADIER</text>
        </g>
    </g>
    <g transform="matrix(0.847635,0,0,0.847635,228.548,15.7127)">
        <path d="M1500,394.95C1515.97,456.699 1558.23,492.655 1598.97,504.215C1563.48,511.238 1537.84,545.573 1537.84,585.702C1537.84,625.842 1572.48,663.061 1615.2,663.061C1657.92,663.061 1692.56,628.428 1692.56,585.702C1692.56,571.687 1688.83,558.54 1682.31,547.2C1705.52,538.355 1737.86,519.964 1753.1,499.944C1748.04,526.211 1755.09,557.677 1771.94,579.234C1739.83,592.421 1720.23,622.565 1720.23,659.41C1720.23,696.26 1754.86,736.768 1797.59,736.768C1864.9,736.768 1885.91,666.164 1855.48,618.126C1855.48,618.126 1903.85,597.143 1949.7,557.75C1943.7,583.354 1940.53,621.816 1957.73,663.275C1886.37,703.955 1844.96,801.497 1824.2,905.68L1175.8,905.68C1155.04,801.497 1113.63,703.955 1042.27,663.275C1059.48,621.816 1056.31,583.354 1050.3,557.75C1096.15,597.143 1144.52,618.126 1144.52,618.126C1114.1,666.164 1135.11,736.768 1202.42,736.768C1245.14,736.768 1279.78,696.26 1279.78,659.41C1279.78,622.565 1260.18,592.421 1228.06,579.234C1244.91,557.677 1251.97,526.211 1246.91,499.944C1262.14,519.964 1294.48,538.355 1317.69,547.2C1311.17,558.54 1307.44,571.687 1307.44,585.702C1307.44,628.428 1342.08,663.061 1384.8,663.061C1427.53,663.061 1462.16,625.842 1462.16,585.702C1462.16,545.573 1436.52,511.238 1401.03,504.215C1441.77,492.655 1484.04,456.699 1500,394.95ZM1500,737.568L1541.13,800.619L1500,863.668L1458.88,800.619L1500,737.568ZM1223.21,780.013L1263.3,813.484L1248.83,863.668L1208.73,830.198L1223.21,780.013ZM1345.37,753.019L1390.4,802.506L1363.27,863.668L1318.23,814.177L1345.37,753.019ZM1776.8,780.013L1736.71,813.484L1751.18,863.668L1791.27,830.198L1776.8,780.013ZM1654.63,753.019L1609.6,802.506L1636.73,863.668L1681.77,814.177L1654.63,753.019Z" style="fill:rgb(13,59,102);"/>
    </g>
</svg>
